<svg xmlns="http://www.w3.org/2000/svg" width="73.927" height="67.607" viewBox="0 0 73.927 67.607">
  <path id="github-brands" d="M24.727,62.437c0,.28-.343.5-.775.5-.492.042-.835-.182-.835-.5,0-.28.343-.5.775-.5C24.339,61.892,24.727,62.116,24.727,62.437Zm-4.635-.629c-.1.28.194.6.641.685.388.14.835,0,.924-.28s-.194-.6-.641-.727a.787.787,0,0,0-.924.322Zm6.588-.238c-.432.1-.73.363-.686.685.045.28.432.461.879.363s.73-.363.686-.643S27.111,61.529,26.679,61.571ZM36.486,8C15.814,8,0,22.721,0,42.111c0,15.5,10.4,28.77,25.263,33.44,1.908.322,2.578-.783,2.578-1.692,0-.867-.045-5.648-.045-8.584,0,0-10.433,2.1-12.624-4.166,0,0-1.7-4.068-4.143-5.117,0,0-3.413-2.195.238-2.153a7.973,7.973,0,0,1,5.753,3.607c3.264,5.4,8.734,3.844,10.865,2.922a7.6,7.6,0,0,1,2.385-4.711c-8.332-.867-16.738-2-16.738-15.448,0-3.844,1.133-5.774,3.517-8.234a12.447,12.447,0,0,1,.388-9.492c3.115-.909,10.284,3.775,10.284,3.775a37.458,37.458,0,0,1,18.72,0s7.169-4.7,10.284-3.775a12.442,12.442,0,0,1,.388,9.492c2.385,2.474,3.845,4.4,3.845,8.234,0,13.491-8.779,14.567-17.11,15.448,1.371,1.1,2.534,3.2,2.534,6.487,0,4.711-.045,10.541-.045,11.687,0,.909.686,2.013,2.578,1.692,14.9-4.641,25.01-17.908,25.01-33.412C73.926,22.721,57.159,8,36.486,8Zm-22,48.216c-.194.14-.149.461.1.727.238.224.581.322.775.14.194-.14.149-.461-.1-.727C15.024,56.133,14.681,56.035,14.487,56.216Zm-1.61-1.132c-.1.182.045.405.343.545a.462.462,0,0,0,.641-.1c.1-.182-.045-.405-.343-.545C13.22,54.9,12.982,54.944,12.878,55.084Zm4.829,4.977c-.238.182-.149.6.194.867.343.322.775.363.969.14.194-.182.1-.6-.194-.867C18.347,59.879,17.9,59.837,17.707,60.061Zm-1.7-2.055c-.238.14-.238.5,0,.825s.641.461.835.322a.609.609,0,0,0,0-.867.617.617,0,0,0-.835-.28Z" transform="translate(0 -8)" fill="#aec1de"/>
</svg>
