<svg xmlns="http://www.w3.org/2000/svg" width="66.684" height="66.15" viewBox="0 0 66.684 66.15">
  <path id="instagram-brands" d="M33.274,47.94A16.961,16.961,0,1,0,50.368,64.9,17,17,0,0,0,33.274,47.94Zm0,27.986A11.027,11.027,0,1,1,44.387,64.9,11.09,11.09,0,0,1,33.274,75.926Zm21.779-28.68a3.987,3.987,0,1,1-3.987-3.956A3.962,3.962,0,0,1,55.054,47.246Zm11.321,4.015c-.253-5.3-1.473-9.993-5.385-13.86s-8.628-5.078-13.969-5.343c-5.5-.31-22-.31-27.507,0-5.326.251-10.057,1.461-13.969,5.329S.427,45.947.159,51.246c-.312,5.461-.312,21.831,0,27.292.253,5.3,1.473,9.993,5.385,13.86s8.628,5.078,13.969,5.343c5.5.31,22,.31,27.507,0,5.341-.251,10.071-1.461,13.969-5.343s5.118-8.561,5.385-13.86C66.687,73.077,66.687,56.723,66.375,51.261ZM59.264,84.4a11.207,11.207,0,0,1-6.337,6.288c-4.389,1.727-14.8,1.328-19.652,1.328S18,92.4,13.623,90.687A11.207,11.207,0,0,1,7.285,84.4C5.545,80.044,5.946,69.712,5.946,64.9S5.559,49.741,7.285,45.4a11.207,11.207,0,0,1,6.337-6.288c4.389-1.727,14.8-1.328,19.652-1.328s15.278-.384,19.652,1.328A11.207,11.207,0,0,1,59.264,45.4C61,49.756,60.6,60.088,60.6,64.9S61,80.059,59.264,84.4Z" transform="translate(0.075 -31.825)" fill="#aec1de"/>
</svg>
