<svg xmlns="http://www.w3.org/2000/svg" width="71.68" height="54.301" viewBox="0 0 71.68 54.301">
  <path id="youtube-brands" d="M85.115,72.5a9.387,9.387,0,0,0-6.337-6.872C73.188,64,50.773,64,50.773,64s-22.415,0-28,1.624A9.387,9.387,0,0,0,16.431,72.5c-1.5,6.062-1.5,18.709-1.5,18.709s0,12.647,1.5,18.709a9.233,9.233,0,0,0,6.337,6.762c5.59,1.624,28,1.624,28,1.624s22.415,0,28-1.624a9.233,9.233,0,0,0,6.337-6.762c1.5-6.062,1.5-18.709,1.5-18.709S86.613,78.558,85.115,72.5ZM43.442,102.688V79.723L62.176,91.206Z" transform="translate(-14.933 -64)" fill="#aec1de"/>
</svg>
